<svg width="512" height="512" viewBox="0 0 512 512" xmlns="http://www.w3.org/2000/svg">
  <defs>
    <linearGradient id="gradient" x1="0%" y1="0%" x2="100%" y2="100%">
      <stop offset="0%" style="stop-color:#0891b2;stop-opacity:1" />
      <stop offset="100%" style="stop-color:#10b981;stop-opacity:1" />
    </linearGradient>
  </defs>
  
  <!-- Rounded square background -->
  <rect width="512" height="512" rx="115" fill="url(#gradient)"/>
  
  <!-- House shape -->
  <path d="M 256 120 L 140 200 L 140 360 L 372 360 L 372 200 Z" fill="white" opacity="0.95"/>
  
  <!-- Roof -->
  <path d="M 256 80 L 110 200 L 140 200 L 256 120 L 372 200 L 402 200 Z" fill="white"/>
  
  <!-- Euro symbol integrated in the house -->
  <g transform="translate(256, 270)">
    <!-- Euro symbol -->
    <path d="M 30 -45 C 50 -45 65 -35 70 -15 L 50 -10 C 47 -22 40 -30 30 -30 C 15 -30 5 -15 5 0 C 5 15 15 30 30 30 C 40 30 47 22 50 10 L 70 15 C 65 35 50 45 30 45 C 5 45 -15 25 -15 0 C -15 -25 5 -45 30 -45 Z" fill="#0891b2"/>
    <!-- Horizontal lines of Euro -->
    <rect x="-25" y="-8" width="50" height="6" fill="#0891b2" rx="3"/>
    <rect x="-25" y="8" width="50" height="6" fill="#0891b2" rx="3"/>
  </g>
  
  <!-- Door -->
  <rect x="226" y="300" width="60" height="60" fill="#0891b2" rx="5"/>
</svg>
